<svg width="187" height="270" viewBox="0 0 187 270" fill="none" xmlns="http://www.w3.org/2000/svg">
<path d="M87.52 12.5395C92.06 10.3095 96.29 10.3695 100.2 12.7295C104.13 15.0895 106.8 18.5295 108.21 23.0595C109.67 27.7295 110.24 31.5595 109.91 34.5295C109.47 38.5595 109.03 41.5095 108.6 43.3695C105.58 56.3695 98.3 68.0095 83.8 68.3995C79.5 68.5095 75.64 67.5395 72.23 65.4695C59.55 57.7895 52.76 42.5795 52.86 27.7495C52.96 13.3895 61 0.829517 77.29 4.50952C79.95 5.10952 82.54 6.95952 84.25 9.24952C85.61 11.0695 86.43 12.1195 86.71 12.3995C86.92 12.6195 87.25 12.6695 87.52 12.5395Z" fill="#EA8C8C"/>
<path d="M85.7101 83.7805C76.2601 88.4305 67.5701 94.2805 59.6201 101.351C43.9301 115.301 36.2001 133.221 36.4101 155.131C34.7601 151.051 33.4801 145.911 32.5701 139.721C32.1501 136.851 30.8301 132.491 28.6101 126.641C27.8801 124.731 24.9401 119.111 19.7901 109.781C6.65005 85.9905 3.26005 58.0106 16.0801 33.6406C20.1501 25.9006 25.5101 19.6306 32.1501 14.8306C34.1801 13.3606 36.8301 13.5206 37.0701 16.7806C37.1601 18.0306 36.9601 19.5206 36.4901 21.2506C34.7801 27.5006 32.4101 34.5506 33.2001 40.7906C34.8001 53.2406 41.0801 64.2505 49.9401 73.0305C55.6601 78.7005 62.1401 82.3005 69.3801 83.8405C71.2401 84.2305 75.6001 84.2506 82.4501 83.9006C83.5101 83.8506 84.6601 82.9505 85.7101 83.7805Z" fill="#F2A940"/>
<path d="M100.44 187.3C91.9099 179.48 83.1799 173.95 74.2599 170.7C65.2899 167.43 55.4999 166.76 44.8999 168.71C43.4699 168.97 41.8899 169.78 40.2199 169.9L40.7999 169.18C41.0099 168.92 41.0299 168.55 40.8599 168.26C39.9399 166.77 39.3899 165.78 39.2099 165.28C37.8399 161.48 36.9099 158.1 36.4099 155.13C36.1999 133.22 43.9299 115.3 59.6199 101.35C67.5699 94.2801 76.2599 88.4301 85.7099 83.7801C100.29 77.6301 112.54 70.8501 122.45 63.4401C137.28 52.3501 152.69 41.8401 168.66 31.9301C172.67 29.4401 176.55 27.4701 180.28 26.0201C181.42 25.5801 182.69 26.1901 183.05 27.3601C184.89 33.3901 166.83 51.7101 163.01 55.2501C150.61 66.7201 138.88 76.2301 127.82 83.8001C120.65 88.7001 114.66 92.8001 109.83 96.0901C98.0099 104.16 85.1799 113.89 89.9699 130.5C92.9199 140.7 100.88 148.09 109.3 153.96C118.09 160.09 124.92 164.92 129.79 168.47C147.73 181.52 162.84 198.31 171.06 219.7C173.77 226.75 174.72 233.96 173.92 241.32C173.15 248.37 168.34 246.12 164.82 242.99C162.09 240.56 158.05 236.5 152.69 230.8C148.55 226.39 144.48 222.32 140.49 218.61C128.06 207.04 114.71 196.6 100.44 187.3Z" fill="#3CACAC"/>
<path d="M100.44 187.301L103.07 190.741C108.14 197.001 111.21 203.421 112.3 209.991C112.79 212.901 112.19 216.591 110.52 221.061C108.88 225.091 105.89 227.601 101.55 228.591C94.76 230.131 84.87 227.351 78.32 225.171C72.94 223.381 68.15 221.701 63.96 220.151C63.32 219.911 62.72 220.581 63.02 221.201C69.17 233.751 78.79 243.291 81.65 254.171L82.42 262.171C80.99 266.281 78.1 267.391 73.75 265.501C71.62 264.571 69.27 263.001 66.71 260.771C55.24 250.801 44.94 239.611 35.79 227.201C28.37 217.151 21.89 205.871 20.15 193.681C19.7 190.571 20.14 187.391 21.45 184.141C21.78 184.041 21.92 183.741 21.88 183.251C22.01 182.781 22.21 182.451 22.48 182.241L25.96 177.561C26.25 176.951 26.67 176.511 27.24 176.231C28.44 175.801 29.38 175.141 30.05 174.251C30.65 173.591 31.37 173.161 32.21 172.951L40 169.981C40.07 169.911 40.14 169.891 40.22 169.901C41.89 169.781 43.47 168.971 44.9 168.711C55.5 166.761 65.29 167.431 74.26 170.701C83.18 173.951 91.91 179.481 100.44 187.301Z" fill="#2D2D2D"/>
<path d="M40 169.98L32.21 172.95C34.79 171.3 37.39 170.31 40 169.98Z" fill="#2D2D2D"/>
<path d="M30.0502 174.25C29.3802 175.14 28.4402 175.8 27.2402 176.23C27.9902 175.3 28.9302 174.64 30.0502 174.25Z" fill="#2D2D2D"/>
<path d="M25.96 177.561L22.48 182.241C23.13 180.291 24.29 178.731 25.96 177.561Z" fill="#2D2D2D"/>
<path d="M21.8802 183.25C21.9202 183.74 21.7802 184.04 21.4502 184.14L21.8802 183.25Z" fill="#2D2D2D"/>
<path d="M110.52 221.06C112.19 216.59 112.79 212.9 112.3 209.99C111.21 203.42 108.14 197 103.07 190.74C108.28 196.13 111.53 202.28 112.84 209.18C113.57 213.06 112.8 217.02 110.52 221.06Z" fill="#2D2D2D"/>
<path d="M81.6499 254.17C83.0099 257.06 83.2699 259.72 82.4199 262.17L81.6499 254.17Z" fill="#2D2D2D"/>
</svg>
